:SAMPLES-PER-SECOND 30
:FULLY-SPECIFIED
:DEGREES
1678
root  22.4643 40.2905 -31.2647 176.104 -46.004 179.236
RightUpLeg  4.57718 -10.1283 -3.59879
RightLeg  10.3588 -15.8094 3.58489
RightFoot  -9.24643 -0.0659283 0.166343
RightToes  0.000481921 0.542163 -0.142578
Spine  7.62154 0.478376 11.7764
Spine1  7.60275 2.17752 -3.72305
HEad  -9.20226 2.46228 -4.43583
LeftShoulder1  9.11146 -13.3818 -47.0881
LeftArm  -13.3048 20.8588 -25.0443
LeftForeArm  40.3581 -43.9958 -8.06798
LeftHand  -0.25398 0.0180481 5.50724
RightShoulder  5.57753 9.62277 36.4966
RightArm  8.16222 9.58589 33.6452
RightForeArm  0.146007 24.0482 5.10909
RightHand  -1.9416 6.93969 -18.5418
LeftUpLeg  -12.8898 13.3903 2.11851
LeftLeg  5.35036 13.1192 -3.44337
LeftFoot  3.21667 0.483732 -3.9475
LeftToes  1.06245e-005 4.65869e-005 -8.65517e-006
1679
root  21.9334 40.2786 -31.6892 176.048 -46.1121 179.556
RightUpLeg  5.85458 -9.96586 -3.58642
RightLeg  9.70047 -15.8872 3.6962
RightFoot  -9.74755 -0.0737186 0.542565
RightToes  0.000481921 0.542163 -0.142578
Spine  7.14022 0.506995 11.156
Spine1  7.9339 2.08329 -3.57638
HEad  -9.08903 2.77932 -4.06705
LeftShoulder1  9.12173 -13.4222 -47.0274
LeftArm  -12.6914 21.0992 -25.0952
LeftForeArm  40.0055 -42.5632 -7.63434
LeftHand  -0.25398 0.0180481 5.50724
RightShoulder  5.56329 9.59135 36.49
RightArm  7.97423 9.45314 33.822
RightForeArm  1.05299 24.8922 5.27697
RightHand  -1.92504 6.92765 -18.4072
LeftUpLeg  -11.3911 5.15117 4.48
LeftLeg  -3.29888 23.195 -7.62622
LeftFoot  4.14605 0.445399 -3.458
LeftToes  1.06245e-005 4.65869e-005 -8.65517e-006
1680
root  21.3008 40.1791 -32.1139 175.643 -46.1415 -179.752
RightUpLeg  6.91738 -10.026 -3.52297
RightLeg  9.99099 -15.6752 3.65314
RightFoot  -10.6856 -0.0777198 0.985433
RightToes  0.000481921 0.542163 -0.142578
Spine  6.4487 0.549135 10.9303
Spine1  8.33166 1.96393 -3.27536
HEad  -8.99988 3.02611 -3.69661
LeftShoulder1  9.14394 -13.4115 -47.1749
LeftArm  -11.7561 21.1079 -24.9757
LeftForeArm  39.1071 -39.8625 -6.88173
LeftHand  -0.25398 0.0180481 5.50724
RightShoulder  5.59835 9.61093 36.6882
RightArm  8.16119 8.99717 33.9208
RightForeArm  1.20693 24.8826 5.26477
RightHand  -1.93022 7.01177 -18.3361
LeftUpLeg  -11.8544 5.10982 4.54329
LeftLeg  -5.78115 24.951 -7.88657
LeftFoot  3.42506 0.459648 -3.7083
LeftToes  1.06245e-005 4.65869e-005 -8.65517e-006
1681
root  20.6131 40.0689 -32.5359 175.204 -46.2861 -179.243
RightUpLeg  8.253 -10.222 -3.80672
RightLeg  10.303 -15.2524 3.69861
RightFoot  -11.6876 -0.0726857 2.00644
RightToes  0.000481921 0.542163 -0.142578
Spine  5.97641 0.514639 10.4671
Spine1  8.66805 1.83296 -3.02299
HEad  -8.72039 3.15395 -3.01464
LeftShoulder1  9.13723 -13.3555 -47.2989
LeftArm  -10.7117 21.0708 -24.9259
LeftForeArm  37.7329 -36.1673 -5.95072
LeftHand  -0.25398 0.0180481 5.50724
RightShoulder  5.66946 9.64996 37.09
RightArm  8.51726 8.10874 34.0409
RightForeArm  0.831689 24.0024 5.09299
RightHand  -1.97019 7.13841 -18.521
LeftUpLeg  -11.8284 5.06039 4.62958
LeftLeg  -6.19008 26.9787 -8.02769
LeftFoot  2.74863 0.429945 -3.5968
LeftToes  1.06245e-005 4.65869e-005 -8.65517e-006
1682
root  19.8637 39.9636 -32.9689 174.724 -46.396 -178.933
RightUpLeg  9.96167 -10.4871 -4.42645
RightLeg  10.4809 -14.6366 3.83453
RightFoot  -12.5732 -0.0498591 3.31459
RightToes  0.000481921 0.542163 -0.142578
Spine  5.67351 0.479628 9.90023
Spine1  8.94672 1.83894 -3.08529
HEad  -8.36034 3.05228 -2.4459
LeftShoulder1  9.08547 -13.2957 -47.1962
LeftArm  -9.61803 21.2905 -25.0781
LeftForeArm  36.0507 -32.0007 -5.0088
LeftHand  -0.25398 0.0180481 5.50724
RightShoulder  5.74071 9.6534 37.603
RightArm  8.62938 6.64991 34.3114
RightForeArm  0.48709 22.2953 4.97583
RightHand  -2.02017 7.21084 -18.8693
LeftUpLeg  -11.258 5.3391 4.46777
LeftLeg  -5.36842 28.8705 -7.98199
LeftFoot  3.41964 0.235075 -2.00494
LeftToes  1.06245e-005 4.65869e-005 -8.65517e-006
1683
root  19.0226 39.8994 -33.4246 174.567 -46.2693 -179.136
RightUpLeg  11.9741 -10.868 -5.62121
RightLeg  10.3633 -13.6372 4.00218
RightFoot  -13.0807 -0.0208199 4.48574
RightToes  0.000481921 0.542163 -0.142578
Spine  5.08293 0.550957 9.14673
Spine1  9.46158 2.06183 -3.56534
HEad  -7.8354 3.06679 -1.92739
LeftShoulder1  9.01476 -13.2132 -47.0569
LeftArm  -8.44336 21.9334 -25.1882
LeftForeArm  34.0661 -27.8911 -4.16957
LeftHand  -0.25398 0.0180481 5.50724
RightShoulder  5.81415 9.63773 38.1911
RightArm  7.41684 4.68298 34.5795
RightForeArm  1.86946 19.7593 5.40658
RightHand  -2.02715 7.16386 -18.9985
LeftUpLeg  -10.2296 5.27572 3.77744
LeftLeg  -4.8997 30.6338 -7.87198
LeftFoot  6.36612 -0.373067 2.05745
LeftToes  1.06245e-005 4.65869e-005 -8.65517e-006
1684
root  18.0786 39.8868 -33.9 175.101 -46.0778 179.759
RightUpLeg  14.0802 -11.657 -7.7848
RightLeg  10.2109 -11.8368 4.05635
RightFoot  -13.223 0.00586759 5.81336
RightToes  0.000481921 0.542163 -0.142578
Spine  4.01982 0.698643 7.75458
Spine1  10.2614 2.31151 -4.03643
HEad  -7.20816 3.32056 -1.4645
LeftShoulder1  8.95613 -13.0418 -47.2387
LeftArm  -7.30681 22.8857 -24.917
LeftForeArm  31.8206 -24.0384 -3.53133
LeftHand  -0.25398 0.0180481 5.50724
RightShoulder  5.91871 9.65358 38.9014
RightArm  4.27127 2.33769 34.5793
RightForeArm  6.07884 16.4906 6.29221
RightHand  -1.98172 7.06594 -18.728
LeftUpLeg  -9.11204 4.73642 2.42648
LeftLeg  -4.66199 31.5727 -7.73402
LeftFoot  9.7272 -1.36454 7.04433
LeftToes  1.06245e-005 4.65869e-005 -8.65517e-006
1685
root  17.0734 39.9074 -34.3775 176.272 -46.3134 177.855
RightUpLeg  15.9604 -13.0805 -10.8462
RightLeg  10.6542 -9.42387 3.83165
RightFoot  -13.0004 0.0209134 7.55042
RightToes  0.000481921 0.542163 -0.142578
Spine  2.86152 0.779773 5.60727
Spine1  10.8774 2.35554 -4.10375
HEad  -6.55658 3.41666 -1.1073
LeftShoulder1  8.90521 -12.7998 -47.6736
LeftArm  -7.05226 23.8769 -24.2957
LeftForeArm  30.2755 -20.2748 -3.43382
LeftHand  -0.25398 0.0180481 5.50724
RightShoulder  6.01333 9.64188 39.6267
RightArm  -0.312376 -0.550583 34.4552
RightForeArm  11.8881 12.9594 6.94419
RightHand  -1.93087 7.00323 -18.3544
LeftUpLeg  -8.28332 4.15137 0.658184
LeftLeg  -3.16997 31.4652 -7.30042
LeftFoot  10.5055 -1.97268 9.8872
LeftToes  1.06245e-005 4.65869e-005 -8.65517e-006
1686
root  16.0712 39.9584 -34.821 177.752 -47.2288 175.762
RightUpLeg  17.3589 -15.4546 -14.2859
RightLeg  12.0143 -6.76119 3.25824
RightFoot  -12.0703 -0.0220195 9.5062
RightToes  0.000481921 0.542163 -0.142578
Spine  2.05314 0.732108 3.4618
Spine1  10.8487 2.26762 -4.15321
HEad  -5.86467 2.80227 -0.875631
LeftShoulder1  8.83716 -12.6082 -47.8731
LeftArm  -8.27158 24.7586 -23.7209
LeftForeArm  30.2682 -16.6007 -3.91045
LeftHand  -0.25398 0.0180481 5.50724
RightShoulder  5.99126 9.47996 40.0058
RightArm  -4.75869 -4.36255 34.8087
RightForeArm  16.2514 10.0239 6.82734
RightHand  -1.874 6.81969 -18.0886
LeftUpLeg  -7.44956 3.7355 -1.14496
LeftLeg  -1.15424 30.8347 -6.9621
LeftFoot  8.64178 -1.81482 9.95523
LeftToes  1.06245e-005 4.65869e-005 -8.65517e-006
1687
root  15.094 40.0189 -35.1936 179.129 -48.5461 174.094
RightUpLeg  18.2334 -19.2183 -17.7462
RightLeg  14.2966 -3.16618 2.23894
RightFoot  -10.3903 -0.174151 12.1333
RightToes  0.000481921 0.542163 -0.142578
Spine  1.65873 0.649079 2.28196
Spine1  10.3031 2.30024 -4.84171
HEad  -5.10962 1.47091 -0.826521
LeftShoulder1  8.75649 -12.5362 -47.646
LeftArm  -9.60262 25.5813 -23.5007
LeftForeArm  30.4906 -13.6813 -4.23376
LeftHand  -0.25398 0.0180481 5.50724
RightShoulder  5.838 9.20809 39.7973
RightArm  -7.94181 -9.07885 35.8515
RightForeArm  17.8629 8.29973 6.22951
RightHand  -1.75156 6.30473 -17.6538
LeftUpLeg  -6.53833 3.30827 -2.78596
LeftLeg  0.39991 30.0838 -6.69402
LeftFoot  6.17793 -1.43741 9.06884
LeftToes  1.06245e-005 4.65869e-005 -8.65517e-006
1688
root  14.1412 40.0447 -35.4817 -179.841 -49.8538 172.913
RightUpLeg  18.3377 -22.6433 -20.5771
RightLeg  17.5585 0.519671 0.852221
RightFoot  -8.328 -0.483821 16.005
RightToes  0.000481921 0.542163 -0.142578
Spine  1.56989 0.636864 1.94532
Spine1  9.82194 2.46833 -5.9397
HEad  -4.55573 -0.00732739 -1.15518
LeftShoulder1  8.69493 -12.5082 -47.3894
LeftArm  -10.3041 26.3814 -23.4874
LeftForeArm  30.1988 -12.3491 -4.26145
LeftHand  -0.25398 0.0180481 5.50724
RightShoulder  5.68869 9.0377 39.26
RightArm  -9.5977 -13.9611 36.8625
RightForeArm  18.1758 7.79546 5.77989
RightHand  -1.579 5.63807 -16.8908
LeftUpLeg  -5.70113 2.87754 -4.27953
LeftLeg  1.66006 29.2364 -6.26324
LeftFoot  4.26585 -1.23921 8.84036
LeftToes  1.06245e-005 4.65869e-005 -8.65517e-006
1689
root  13.2288 40.0084 -35.7071 -179.149 -51.0166 171.905
RightUpLeg  16.7178 -21.3011 -21.3643
RightLeg  22.5807 -0.24992 -0.462848
RightFoot  -5.69976 -1.00597 19.4001
RightToes  0.000481921 0.542163 -0.142578
Spine  1.82866 0.688602 1.52005
Spine1  9.73507 2.54712 -6.49153
HEad  -4.80659 -1.17181 -2.07388
LeftShoulder1  8.65386 -12.4085 -47.462
LeftArm  -10.392 26.978 -23.4493
LeftForeArm  29.4487 -12.786 -4.17151
LeftHand  -0.25398 0.0180481 5.50724
RightShoulder  5.65046 9.06334 38.8809
RightArm  -9.55532 -18.0133 37.0027
RightForeArm  18.6235 8.14728 5.75828
RightHand  -1.45811 5.23364 -16.2091
LeftUpLeg  -4.92474 2.64904 -5.60277
LeftLeg  3.28851 28.2703 -5.69488
LeftFoot  2.42634 -1.09075 8.88996
LeftToes  1.06245e-005 4.65869e-005 -8.65517e-006
1690
root  12.3937 39.9497 -35.9022 -178.526 -52.0656 170.716
RightUpLeg  13.4278 -17.8859 -21.2379
RightLeg  29.9046 -3.39786 -2.37265
RightFoot  -1.34816 -1.66447 18.9851
RightToes  0.000481921 0.542163 -0.142578
Spine  2.53405 0.732812 0.399984
Spine1  9.87862 2.42752 -6.21636
HEad  -5.89884 -1.83222 -2.92093
LeftShoulder1  8.60289 -12.241 -47.6869
LeftArm  -10.089 27.0917 -23.4376
LeftForeArm  28.5147 -14.289 -4.04631
LeftHand  -0.25398 0.0180481 5.50724
RightShoulder  5.68418 9.14971 38.842
RightArm  -8.25089 -20.6349 36.372
RightForeArm  19.1723 8.77519 6.00946
RightHand  -1.43064 5.17268 -15.9992
LeftUpLeg  -3.80776 2.56569 -6.82785
LeftLeg  4.62827 27.3826 -5.43342
LeftFoot  0.507396 -0.893212 8.55559
LeftToes  1.06245e-005 4.65869e-005 -8.65517e-006
1691
root  11.6524 39.8828 -36.079 -177.942 -52.9678 169.488
RightUpLeg  9.06901 -14.8793 -20.9008
RightLeg  38.3637 -5.66914 -5.05183
RightFoot  4.58495 -1.98095 14.4134
RightToes  0.000481921 0.542163 -0.142578
Spine  3.56303 0.734948 -1.01037
Spine1  9.99203 2.19917 -5.66743
HEad  -7.29715 -2.01943 -3.18619
LeftShoulder1  8.54983 -12.1177 -47.767
LeftArm  -9.70947 26.6055 -23.5526
LeftForeArm  27.6396 -15.8554 -3.91397
LeftHand  -0.25398 0.0180481 5.50724
RightShoulder  5.71779 9.18362 38.9806
RightArm  -7.09869 -21.7966 35.7378
RightForeArm  19.543 9.01841 6.21975
RightHand  -1.43212 5.16578 -16.0246
LeftUpLeg  -2.5944 2.45498 -7.98109
LeftLeg  5.71471 26.7743 -5.22044
LeftFoot  -1.27803 -0.710921 8.15233
LeftToes  1.06245e-005 4.65869e-005 -8.65517e-006
1692
root  10.995 39.8017 -36.2391 -177.554 -53.72 168.506
RightUpLeg  4.46678 -11.8403 -20.1565
RightLeg  45.9335 -5.89251 -6.75378
RightFoot  9.21442 -1.68196 9.53083
RightToes  0.000481921 0.542163 -0.142578
Spine  4.65379 0.693698 -2.27017
Spine1  10.1091 1.90595 -5.27953
HEad  -8.31712 -1.87012 -3.17502
LeftShoulder1  8.56003 -12.1252 -47.8017
LeftArm  -9.3655 25.5524 -23.654
LeftForeArm  26.939 -16.8433 -3.85653
LeftHand  -0.25398 0.0180481 5.50724
RightShoulder  5.75317 9.22688 39.0997
RightArm  -7.21228 -21.7523 35.5082
RightForeArm  19.9215 8.54047 6.18487
RightHand  -1.4036 5.03601 -15.9012
LeftUpLeg  -1.61642 2.36162 -9.00541
LeftLeg  6.95226 26.3055 -4.75059
LeftFoot  -2.84577 -0.587328 8.12965
LeftToes  1.06245e-005 4.65869e-005 -8.65517e-006
